<?xml version="1.0" encoding="UTF-8" standalone="no"?>
<svg
   version="1.1"
   x="0px"
   y="0px"
   viewBox="0 0 56.875 65.974998"
   enable-background="new 0 0 68 68"
   xml:space="preserve"
   id="svg10"
   sodipodi:docname="noun-satellite-2463126.svg"
   width="56.875"
   height="65.974998"
   inkscape:export-filename="noun-satellite-2463126.png"
   inkscape:export-xdpi="300"
   inkscape:export-ydpi="300"
   inkscape:version="1.4.3 (0d15f75042, 2025-12-25)"
   xmlns:inkscape="http://www.inkscape.org/namespaces/inkscape"
   xmlns:sodipodi="http://sodipodi.sourceforge.net/DTD/sodipodi-0.dtd"
   xmlns="http://www.w3.org/2000/svg"
   xmlns:svg="http://www.w3.org/2000/svg"><defs
     id="defs10" /><sodipodi:namedview
     id="namedview10"
     pagecolor="#505050"
     bordercolor="#eeeeee"
     borderopacity="1"
     inkscape:showpageshadow="0"
     inkscape:pageopacity="0"
     inkscape:pagecheckerboard="0"
     inkscape:deskcolor="#505050"
     inkscape:zoom="12.717647"
     inkscape:cx="28.385754"
     inkscape:cy="41.477798"
     inkscape:window-width="3440"
     inkscape:window-height="1299"
     inkscape:window-x="0"
     inkscape:window-y="0"
     inkscape:window-maximized="1"
     inkscape:current-layer="svg10" /><g
     id="g9"
     transform="translate(-5.6,-1.025)"
     style="fill:#e3b04b;fill-opacity:1"><g
       id="g2"
       style="fill:#e3b04b;fill-opacity:1"><g
         id="g1"
         style="fill:#e3b04b;fill-opacity:1"><path
           d="M 54.4,43.1 C 50.2,46.4 45,48.2 39.5,48.2 36.9,48.2 34.4,47.8 32,47 l -1.6,-6.6 c 0.4,-0.9 0.5,-1.9 0.5,-2.8 0,-4.3 -3.5,-7.9 -7.9,-7.9 -2.4,0 -4.7,1.1 -6.2,3 -3,-7.9 -1.7,-17 3.5,-23.7 z"
           id="path1"
           style="fill:#e3b04b;fill-opacity:1" /></g></g><g
       id="g3"
       style="fill:#e3b04b;fill-opacity:1"><path
         d="M 61.8,37 54.7,29.9 55.9,8.7 v 0 c 0,-0.6 -0.4,-1 -1,-1 v 0 L 33.6,8.8 26.5,1.7 c -0.9,-0.9 -2.4,-0.9 -3.3,0 l -2,2 c -0.9,0.9 -0.9,2.4 0,3.3 l 35.3,35.3 c 0.9,0.9 2.3,0.9 3.3,0 l 2,-2 c 0.9,-0.9 0.9,-2.4 0,-3.3 z m -17,-17 8.9,-8.9 -1,16.8 z m 7.5,-10.3 -8.9,8.9 -7.9,-7.9 z"
         id="path2"
         style="fill:#e3b04b;fill-opacity:1" /></g><g
       id="g5"
       style="fill:#e3b04b;fill-opacity:1"><g
         id="g4"
         style="fill:#e3b04b;fill-opacity:1"><path
           d="M 32.4,56.9 H 13.7 l 3.5,-14.1 c 1.4,1.6 3.5,2.6 5.8,2.6 2.3,0 4.4,-1 5.9,-2.6 z"
           id="path3"
           style="fill:#e3b04b;fill-opacity:1" /></g></g><g
       id="g6"
       style="fill:#e3b04b;fill-opacity:1"><path
         d="m 39.5,65 h -2 v -2.8 c 0,-1.8 -1.5,-3.3 -3.3,-3.3 H 11.9 c -1.8,0 -3.3,1.5 -3.3,3.3 V 65 h -2 c -0.5,0 -1,0.4 -1,1 0,0.6 0.5,1 1,1 h 33 c 0.6,0 1,-0.4 1,-1 -0.1,-0.6 -0.5,-1 -1.1,-1 z"
         id="path5"
         style="fill:#e3b04b;fill-opacity:1" /></g><g
       id="g8"
       style="fill:#e3b04b;fill-opacity:1"><g
         id="g7"
         style="fill:#e3b04b;fill-opacity:1"><path
           d="m 28.9,37.6 c 0,3.2 -2.6,5.9 -5.9,5.9 -3.2,0 -5.9,-2.6 -5.9,-5.9 0,-3.3 2.7,-5.9 5.9,-5.9 3.3,0 5.9,2.6 5.9,5.9 z"
           id="path6"
           style="fill:#e3b04b;fill-opacity:1" /></g></g></g></svg>
